<?xml version="1.0" encoding="utf-8" ?>
<svg baseProfile="full" height="300mm" version="1.1" viewBox="0,0,200,300" width="200mm" xmlns="http://www.w3.org/2000/svg" xmlns:ev="http://www.w3.org/2001/xml-events" xmlns:xlink="http://www.w3.org/1999/xlink"><defs /><rect fill="#222222" height="300" width="200" x="0" y="0" /><text fill="#FFFFFF" style="font-size:12px; font-family:Arial; font-weight:bold;" x="10" y="20">Over 3km Runs</text><text fill="#FFFFFF" style="font-size:4px; font-family:Arial" x="10" y="280">ATHLETE</text><text fill="#FFFFFF" style="font-size:9px; font-family:Arial" x="10" y="290">sakentam</text><text fill="#FFFFFF" style="font-size:4px; font-family:Arial" x="120" y="280">STATISTICS</text><text fill="#FFFFFF" style="font-size:3px; font-family:Arial" x="120" y="285">Number: 3</text><text fill="#FFFFFF" style="font-size:3px; font-family:Arial" x="120" y="290">Weekly: 1.0</text><text fill="#FFFFFF" style="font-size:3px; font-family:Arial" x="141" y="285">Total: 10.9 km</text><text fill="#FFFFFF" style="font-size:3px; font-family:Arial" x="141" y="290">Avg: 3.6 km</text><text fill="#FFFFFF" style="font-size:3px; font-family:Arial" x="167" y="285">Min: 3.1 km</text><text fill="#FFFFFF" style="font-size:3px; font-family:Arial" x="167" y="290">Max: 4.5 km</text><polyline fill="none" points="80.76402535662055,108.56622858671471 81.31219610851258,103.8386485031806 81.86036686133593,98.165543127805 81.03811073116958,95.01381354685873 80.48993998020887,89.34069243236445 81.03811073116958,82.09168961714022 81.58628148585558,75.1578453797847 81.31219610851258,52.78033586940728 67.6079273018986,41.11875443113968 58.5631098896265,38.91250448441133 56.09634150378406,38.28214707574807 50.06646322924644,37.02143188356422 45.68109721131623,37.02143188356422 36.362194422632456,41.74911127774976 34.717682166956365,43.0098245954141 30.332316148094833,48.36785062472336 27.591462386772037,54.67139910114929 27.31737701036036,64.75705068162642 26.76920625846833,67.59363442566246 25.672864752821624,72.95161904278211 25.672864752821624,76.41854545567185 27.043291633948684,90.91656042309478 30.05823077261448,97.53519746125676 36.0881090471521,107.93588498211466 41.569816569797695,112.6634589759633 47.32560946792364,115.5 53.90365849528462,115.5 60.75579289812595,114.86965777003206 75.28231783397496,107.93588498211466 77.20091546606272,106.99036933947355 81.31219610851258,103.52347624744289 82.68262298963964,87.44964981288649 82.68262298963964,84.6130837739911 82.95670836512,77.99441984877922 82.68262298963964,64.75705068162642 82.68262298963964,61.2901115573477 82.68262298963964,54.98657619673759 82.13445223681629,51.51962642441504 78.02317159529775,44.58571554115042 71.44512256700546,40.80357596068643 69.25243955850601,39.54286176851019 64.31890278868377,37.96696832519956 58.28902451321483,36.391074100043625 55.00000000093132,36.075895162066445 47.32560946792364,37.02143188356422 44.036584954708815,37.65178954252042 35.53993829432875,42.0642896539066 32.524999156594276,45.53124973317608 29.510060018859804,50.88927151309326 28.68780389148742,53.72586762602441 27.31737701036036,60.02940548490733 26.495120882056653,69.48468885058537 26.495120882056653,72.95161904278211 26.76920625846833,79.2551188012585 27.31737701036036,88.71034501702525 28.413718516007066,92.17725425516255 31.428657652810216,97.85037031001411 42.1179873207584,112.03311618301086 53.35548774339259,113.92414418817498 59.659451394341886,113.92414418817498 65.41524429246783,113.29380164458416 72.26737869624048,110.14208705420606 74.46006170567125,108.88140034303069 81.86036686133593,98.79588866932318 81.86036686133593,96.58967872825451 82.13445223681629,94.69864041730762 81.58628148585558,87.13447593292221 81.03811073116958,80.51581725431606 82.13445223681629,70.4302156411577 82.40853761322796,62.235640784492716 82.68262298963964,59.08387560187839 80.76402535662055,49.31338369147852 76.10457396134734,43.95535925682634 64.59298816509545,38.28214707574807 59.11128064151853,36.391074100043625 55.54817075189203,36.075895162066445 47.873780220746994,36.391074100043625 45.68109721131623,37.02143188356422 43.21432882640511,37.96696832519956 38.00670668017119,40.173218927579 33.62134066130966,44.270537415053695 30.60640152450651,48.99820603360422 27.591462386772037,59.39905226114206 27.043291633948684,64.44187455344945 26.76920625846833,68.22398602566682 26.221035505644977,74.21231999411248 25.946950130164623,77.04889530665241 26.221035505644977,84.6130837739911 27.043291633948684,90.91656042309478 29.510060018859804,97.22002458106726 30.60640152450651,100.37175197596662 34.443596789613366,104.78416508156806 41.02164581697434,110.45725865336135 44.036584954708815,112.34828759543598 50.340548605658114,113.60897293197922 53.08140236698091,113.29380164458416 61.02987827453762,113.29380164458416 64.59298816509545,114.23931541340426 66.51158579718322,112.6634589759633 69.52652493491769,111.40277326432988 70.62286643963307,110.45725865336135 71.99329331982881,109.51174376043491 73.63780557736754,108.88140034303069 74.46006170567125,107.93588498211466 75.28231783397496,107.62071313220076 76.37865933775902,106.67519739666022 77.20091546606272,106.3600254226476 78.02317159529775,105.7296813800931 79.39359847549349,105.09933721227571 80.76402535662055,104.15382072725333 81.03811073116958,103.20830396004021 81.31219610851258,103.52347624744289 83.77896449435502,98.79588866932318 84.32713524531573,96.90485167014413 82.95670836512,90.28621332114562 81.58628148585558,87.76482366048731 81.31219610851258,88.07999747758731 82.13445223681629,86.18895410792902 82.13445223681629,84.6130837739911 82.40853761322796,84.6130837739911 82.13445223681629,83.98273542243987 82.40853761322796,83.03721266030334 82.13445223681629,82.40686399582773 82.13445223681629,82.09168961714022 81.58628148585558,80.51581725431606 80.76402535662055,76.41854545567185 81.58628148585558,74.84267028188333 81.58628148585558,74.21231999411248 82.13445223681629,71.3757421511691 82.13445223681629,70.4302156411577 81.31219610851258,68.22398602566682 80.48993998020887,66.33293085172772 80.2158546037972,65.70257887756452 79.39359847549349,63.49634598218836 83.50487911701202,57.50799184013158 83.77896449435502,56.24728426919319 83.77896449435502,55.30175326182507 83.50487911701202,53.72586762602441 83.50487911701202,53.09551315312274 83.23079374246299,50.574094012146816 82.40853761322796,48.99820603360422 80.48993998020887,46.7919615523424 79.94176922831684,45.53124973317608 78.84542772267014,43.64018106809817 75.55640321038663,39.54286176851019 72.81554944906384,38.28214707574807 71.44512256700546,37.96696832519956 69.80061031132936,37.65178954252042 67.33384192641824,37.96696832519956 66.78567117359489,37.65178954252042 65.41524429246783,37.96696832519956 64.31890278868377,37.65178954252042 62.67439053207636,37.02143188356422 60.207622146233916,36.391074100043625 58.83719526603818,36.391074100043625 56.91859763208777,36.075895162066445 55.54817075189203,36.391074100043625 54.17774387169629,36.391074100043625 52.807316990569234,36.391074100043625 52.25914623774588,36.075895162066445 51.436890109442174,36.075895162066445 50.340548605658114,35.76071619265713 48.421950972639024,36.391074100043625 46.503353339619935,36.391074100043625 45.1329264594242,36.391074100043625 44.036584954708815,37.96696832519956 43.21432882640511,37.65178954252042 42.1179873207584,38.91250448441133 41.295731192454696,39.54286176851019 39.37713356129825,40.48839745949954 37.45853592734784,41.74911127774976 35.8140236698091,43.325002847472206 34.717682166956365,43.95535925682634 33.62134066130966,44.90089363604784 32.524999156594276,46.16160570527427 31.428657652810216,46.7919615523424 30.60640152450651,48.36785062472336 30.332316148094833,48.99820603360422 28.139633138664067,51.20444898423739 27.591462386772037,54.35622197412886 27.31737701036036,54.98657619673759 27.31737701036036,56.56246120831929 26.221035505644977,59.08387560187839 25.672864752821624,61.2901115573477 25.672864752821624,62.235640784492716 25.946950130164623,63.18116972944699 25.672864752821624,66.01775488001294 26.495120882056653,66.96328270155936 26.495120882056653,68.22398602566682 26.76920625846833,69.16951319179498 26.76920625846833,70.4302156411577 26.221035505644977,72.3212683799211 25.672864752821624,74.21231999411248 25.398779378272593,75.1578453797847 25.672864752821624,76.73372039641254 25.672864752821624,77.99441984877922 25.398779378272593,78.93994410941377 25.672864752821624,80.20064268750139 25.398779378272593,81.14616629318334 25.946950130164623,82.09168961714022 25.672864752821624,83.98273542243987 25.672864752821624,85.24343200121075 25.946950130164623,85.87378010409884 26.221035505644977,87.44964981288649 26.495120882056653,88.39517126278952 26.495120882056653,89.97103972360492 27.043291633948684,92.49242763454095 27.591462386772037,93.75312084006146 28.139633138664067,95.01381354685873 28.961889266967773,97.53519746125676 29.510060018859804,98.4807159146294 30.332316148094833,99.74140674713999 31.154572275467217,101.00209707953036 31.70274302829057,101.63244205969386 33.07316990941763,103.52347624744289 33.89542603865266,104.15382072725333 34.443596789613366,104.78416508156806 35.53993829432875,105.09933721227571 36.91036517545581,105.41450931201689 38.00670668017119,106.99036933947355 38.55487743206322,108.56622858671471 39.10304818395525,109.19657206721604 40.47347506415099,111.71794473868795 42.1179873207584,113.92414418817498 44.858841083943844,114.55448660696857 49.792377853766084,113.60897293197922 51.436890109442174,113.92414418817498 51.98506086226553,114.55448660696857 54.17774387169629,114.55448660696857 56.09634150378406,114.23931541340426 56.644512257538736,114.55448660696857 57.740853760391474,115.18482890096493 60.481707523576915,114.86965777003206 61.85213440284133,114.23931541340426 63.22256128303707,114.23931541340426 65.68932966887951,113.60897293197922 67.33384192641824,112.6634589759633 69.52652493491769,111.08760175877251 70.89695181604475,110.14208705420606 71.99329331982881,109.8269154226873 73.08963482547551,109.8269154226873 73.9118909528479,108.88140034303069 74.46006170567125,108.56622858671471 76.37865933775902,107.62071313220076 77.74908621888608,107.30554125132039 79.66768385190517,104.15382072725333 80.2158546037972,101.31726958532818 81.31219610851258,94.69864041730762 81.31219610851258,91.86208084365353 81.58628148585558,85.55860606837086 81.58628148585558,75.78819547989406 82.68262298963964,69.48468885058537 82.68262298963964,66.6481067922432 82.95670836512,60.34458205057308 82.95670836512,57.192814994370565 81.58628148585558,52.1499812095426 79.39359847549349,46.47678364487365 75.83048858586699,41.43393287062645 69.25243955850601,36.70625300728716 55.54817075189203,34.5 45.68109721131623,37.02143188356422 43.76249957829714,37.65178954252042 38.8289628084749,39.54286176851019 34.16951141413301,44.270537415053695 31.428657652810216,48.05267287208699 29.78414539527148,51.20444898423739 27.31737701036036,63.81152220419608 25.672864752821624,75.47302044532262 25.398779378272593,78.62476938753389 25.946950130164623,83.98273542243987 26.76920625846833,88.71034501702525 28.413718516007066,94.06829406390898 29.235974644310772,96.27450575469993 31.428657652810216,100.05657937726937 33.347255285829306,102.57795929396525 40.74756044149399,109.8269154226873 44.858841083943844,112.03311618301086 53.35548774339259,113.60897293197922 61.3039636509493,113.92414418817498 66.23750042170286,112.6634589759633 73.08963482547551,109.8269154226873 74.73414708022028,108.56622858671471 76.6527447141707,107.62071313220076 81.86036686133593,102.89313164330088 82.40853761322796,98.4807159146294 81.86036686133593,95.01381354685873 82.13445223681629,89.02551874076016 82.68262298963964,85.55860606837086 83.23079374246299,75.47302044532262 84.05304986983538,70.4302156411577 84.05304986983538,67.2784585794434 84.60122062265873,60.02940548490733 84.05304986983538,57.50799184013158 82.40853761322796,49.94373891479336 68.97835418302566,36.70625300728716 61.02987827453762,34.815179095137864 58.28902451321483,34.5 52.53323161508888,35.13035815907642 47.59969484433532,36.70625300728716 44.584755706600845,37.65178954252042 37.18445055093616,41.74911127774976 33.347255285829306,45.53124973317608 31.976828404702246,46.7919615523424 28.413718516007066,56.24728426919319 27.591462386772037,59.08387560187839 27.591462386772037,60.34458205057308 27.31737701036036,60.97493508644402 27.043291633948684,62.235640784492716" stroke="#4dd2ff" stroke-linecap="round" stroke-linejoin="round" stroke-width="0.5"><title>2020-01-12 4.5km</title></polyline><polyline fill="none" points="171.65669437218457,100.88838658877648 172.4853998972103,91.35903761582449 173.037870246917,82.4649530176539 173.59034059755504,73.5708437433932 174.14281094633043,65.62965389736928 174.41904612071812,61.50022740312852 174.41904612071812,51.335462601156905 163.64587430190295,39.26476253638975 157.29246527981013,36.40590586489998 150.38658590987325,35.135302079841495 147.6242341613397,34.8176510555204 134.0887105949223,35.77060403581709 130.4976533204317,37.358858371619135 125.24918499961495,41.17066556820646 120.82942220196128,45.935418190900236 118.06707045342773,52.606059964047745 116.96212975401431,60.86493054730818 115.8571890546009,68.48848450742662 115.58095387928188,74.84143229271285 115.8571890546009,78.65319492178969 115.58095387928188,84.37083036545664 116.96212975401431,91.99432842759416 117.79083527904004,95.80607066117227 123.31553877517581,105.3354064160958 127.73530157282948,108.82948909513652 157.84493563044816,110.73535076901317 169.99928332306445,105.65305045293644 174.14281094633043,93.900200111093 174.14281094633043,82.14730668254197 173.31410542223603,79.60613486985676 173.59034059755504,75.79437337513082 173.31410542223603,74.20613808138296 172.761635071598,70.71201766538434 173.037870246917,69.12377985264175 173.037870246917,67.85318903741427 172.761635071598,62.135524132754654 172.4853998972103,58.95903922477737 172.4853998972103,55.14725317899138 172.2091647228226,53.24135845666751 172.2091647228226,49.74721518927254 165.8557557007298,41.488315963419154 163.36963912844658,40.217714194441214 157.84493563044816,37.358858371619135 149.83411556109786,34.8176510555204 137.40353269223124,34.8176510555204 128.5640070978552,38.94711192091927 123.86800912581384,43.71186784794554 119.44824632722884,50.064864735351875 116.96212975401431,58.323741864645854 115.58095387928188,75.47672637901269 116.13342422898859,82.78259932040237 116.4096594043076,85.9590606233105 117.238364928402,93.900200111093 118.34330562874675,97.71194007853046 121.10565737634897,104.06482995138504 123.03930360078812,106.28833843278699 132.98376989457756,111.37063774303533 145.9668231131509,113.9117843771819 160.6072873789817,111.05299427197315 163.09340395312756,109.7824200745672 171.9329295484349,103.74718575668521 172.761635071598,100.88838658877648 172.761635071598,98.98251906014048 172.4853998972103,95.48842564877123 172.4853998972103,90.08845561230555 172.4853998972103,88.50022739986889 172.4853998972103,86.91199840093032 172.4853998972103,85.3237686145585 172.4853998972103,82.14730668254197 172.761635071598,79.92378145712428 172.761635071598,78.01790146459825 173.037870246917,76.429667272605 172.761635071598,73.25319652678445 173.037870246917,71.66495997458696 173.037870246917,69.75907507282682 172.761635071598,67.85318903741427 172.761635071598,62.77082073665224 173.037870246917,58.95903922477737 173.31410542223603,57.05314676859416 172.761635071598,53.24135845666751 171.65669437218457,47.20601769350469 168.06563709955662,40.85301514226012 165.02705017570406,39.26476253638975 163.09340395312756,38.31181059568189 161.4359929030761,37.358858371619135 159.5023466795683,36.723556731361896 155.35881905723363,35.135302079841495 147.9004693357274,34.5 132.98376989457756,36.40590586489998 126.90659604873508,40.217714194441214 124.97294982336462,42.44126696046442 121.10565737634897,47.20601769350469 117.79083527904004,55.14725317899138 116.96212975401431,62.77082073665224 116.68589457962662,69.44142747856677 116.4096594043076,78.01790146459825 116.68589457962662,81.82966031576507 116.96212975401431,89.13551877927966 118.06707045342773,96.4413605928421 124.14424430020154,106.9236262878403 129.94518297165632,110.10006367089227 140.16588444076478,113.27649790723808 148.1767045110464,112.3235679664649 153.9776431825012,111.37063774303533 157.56870045606047,111.68828118196689 162.54093360248953,109.4647764461115 166.4082260504365,106.9236262878403 168.34187227487564,106.60598237602971 169.44681297428906,106.9236262878403 171.65669437218457,104.70011824695393 172.4853998972103,101.2060310668312 172.4853998972103,100.25309753813781 172.761635071598,98.98251906014048 173.31410542223603,95.80607066117227 172.761635071598,93.900200111093 173.037870246917,92.31197378714569 173.037870246917,88.81787310610525 173.037870246917,82.14730668254197 173.037870246917,80.55907453596592 173.037870246917,78.65319492178969 173.31410542223603,77.06496104341932 173.037870246917,75.79437337513082 172.761635071598,73.25319652678445 173.31410542223603,71.3473125686869 173.31410542223603,69.75907507282682 173.31410542223603,68.48848450742662 173.31410542223603,66.9002455943264 173.59034059755504,65.62965389736928 173.59034059755504,62.77082073665224 173.31410542223603,59.91198502690531 172.761635071598,56.73549791495316 172.761635071598,53.55900765559636 172.761635071598,52.288410670822486 172.761635071598,51.01781318197027 172.4853998972103,49.74721518927254 171.9329295484349,46.5707180055324 171.38045919686556,45.300118250306696 170.55175367370248,43.71186784794554 169.72304814867675,42.44126696046442 168.06563709955662,39.9000636737328 166.6844612248242,38.94711192091927 165.5795205263421,38.31181059568189 162.54093360248953,37.358858371619135 159.5023466795683,36.40590586489998 152.04399695899338,34.8176510555204 144.58564723841846,34.5 135.7461216431111,36.08825496584177 126.63036087341607,40.53536468371749 118.89577597752213,53.55900765559636 117.79083527904004,60.86493054730818 117.51460010372102,63.723765406990424 116.96212975401431,73.88849092880264 116.96212975401431,77.70025468873791 117.238364928402,84.37083036545664 117.51460010372102,86.91199840093032 116.96212975401431,89.45316442172043 117.79083527904004,94.21784528181888 118.34330562874675,96.12371564237401 120.00071667786688,98.98251906014048 120.82942220196128,100.25309753813781 121.65812772605568,101.84131992817856 125.80165534839034,107.24127016728744 126.63036087341607,107.87655783328228 127.73530157282948,108.82948909513652 128.5640070978552,109.4647764461115 131.87882919516414,111.05299427197315 133.26000506989658,111.37063774303533 134.9174161190167,112.00592459039763 136.0223568174988,112.00592459039763 137.67976786661893,112.64121131133288 141.5470603145659,114.22942756442353 142.92823618929833,114.54707071976736 145.69058793783188,115.18235693802126 146.79552863817662,114.86471384391189 147.347998986952,115.5 148.45293968636543,114.54707071976736 149.28164521045983,114.54707071976736 151.49152660928667,113.9117843771819 153.9776431825012,113.9117843771819 155.08258388191462,113.9117843771819 158.6736411564052,111.68828118196689" stroke="#4dd2ff" stroke-linecap="round" stroke-linejoin="round" stroke-width="0.5"><title>2019-11-13 3.2km</title></polyline><polyline fill="none" points="49.40038973256014,184.5 49.05312708043493,184.6996463185642 48.315193944377825,185.24867328660912 47.664076471468434,185.99734546089894 46.83932767226361,186.89575060163043 46.31843369384296,187.2451299460081 43.540332476142794,187.69433160414337 43.32329331850633,187.79415414037067 42.93262283480726,187.94388790783705 42.97603066614829,188.04371039479156 43.01943849772215,188.04371039479156 43.193069823784754,188.39308894315036 43.41010898142122,188.84228957799496 43.540332476142794,188.94211188695044 44.23485778039321,189.09184531320352 44.40848910668865,189.3414009247499 44.2782656121999,190.13997805138933 44.06122645433061,191.13819768000394 43.887595128268,191.48757408277015 43.800779465353116,192.23623698740266 43.844187296694145,193.08472026788513 43.93100295984186,193.63373810003395 44.148042117478326,194.58204021918937 44.538712601410225,197.72639763436746 45.01619874802418,197.97594896989176 46.665696346201,198.12567971181124 48.35860177595168,197.02765323768836 48.2717861130368,197.07756358382176 47.70748430304229,197.07756358382176 47.620668639894575,197.07756358382176 47.620668639894575,197.07756358382176 47.14318249304779,197.227294592798 46.83932767226361,197.4269358688034 46.622288514859974,197.62657706567552 45.537092726677656,197.92603871275787 45.233237905660644,197.92603871275787 44.92938308510929,197.97594896989176 44.495304769603536,198.22550018172478 44.36508127511479,198.3752308495168 44.191449949052185,198.62478186370572 44.06122645433061,198.82442258595256 43.97441079118289,199.0240632292407 43.58374030771665,199.22370379333734 43.23647765535861,199.47325438726693 41.28312523639761,200.42154551722342 39.24295715475455,201.56947449757718 38.89569450216368,201.91884366812883 38.027537871617824,202.66749107520445 35.900554126827046,203.56586649577366 34.94558183290064,204.46424031470087 34.33787219156511,204.56405952904606 34.42468785471283,204.61396912872442 34.51150351786055,204.61396912872442 35.98736978974193,211.20199290858 36.7687107573729,213.24825549253728 37.376420398941264,214.29633798860596 39.41658848058432,218.3888297205558 40.11111378506757,219.03763633352355 40.67541559506208,219.78625831060344 40.89245475269854,220.1855229102075 41.28312523639761,220.73451121844118 41.456756562693045,221.1337750669627 41.760611383244395,221.53303859906737 42.36832102457993,222.2816568693961 42.58536018244922,222.58110386619228 43.36670114984736,224.17815151106333 43.496924644568935,224.5774126315082 43.71396380197257,225.625471567997 44.06122645433061,226.72343573524267 44.45189693802968,227.27241692179814 44.842567421961576,227.52195362729253 45.537092726677656,228.17074848292395 45.840947546996176,228.66982088063378 45.97117104171775,229.21879994726623 46.622288514859974,230.8657335593889 46.79591984092258,231.01545453004655 46.926143335411325,231.16517545614624 47.01295899855904,231.16517545614624 47.14318249304779,231.21508242178243 47.22999815619551,231.21508242178243 47.273405987536535,231.66424488884513 47.40362948225811,232.512661790126 47.49044514540583,232.91191630839603 47.53385297674686,233.46089075444615 47.664076471468434,234.25939797252067 47.75089213461615,234.608744482568 47.83770779753104,235.05790392542258 48.0547469551675,235.90631511437823 48.09815478674136,236.25566048297333 48.315193944377825,238.2519150871376 48.315193944377825,238.701071283489 48.48882527067326,239.20013325446052 48.53223310178146,239.54947634015116 48.57564093358815,239.69919473133632 48.53223310178146,239.74910085182637 48.48882527067326,240.29806785131223 48.40200960752554,241.24628216947895 48.70586442807689,242.39411816789652 48.619048765162006,242.89317648252472 48.57564093358815,243.2425170087663 48.35860177595168,243.991103035165 48.40200960752554,244.0909144214238 48.44541743886657,245.83761048060842 48.662456596735865,246.83571979694534 48.79268009099178,247.2349629701639 49.09653491200879,248.13325895360322 49.270166237838566,248.58240634502727 49.356981901219115,248.98164813482435 49.8344680480659,249.83003588800784 50.008099374128506,250.22927668961347 51.049887330736965,251.37709223263664 51.397149982862175,251.6765219445515 52.395530108129606,252.37519058046746 53.22027890733443,252.9740486406954 53.56754155969247,253.2734774039709 55.173631326295435,253.87233439687407 55.564301809994504,254.12185793402023 56.519274103688076,254.570999989548 56.99676025053486,254.72071391897043 57.73469338635914,255.02014164475258 58.212179533205926,255.26966461379197 59.08033616375178,255.66890110709937 59.5578223108314,255.81861471067532 60.51279460452497,256.2178507692588 61.07709641428664,256.5172776057443 62.24910786561668,256.9664175269718 62.68318618088961,257.21593953249976 63.59475064324215,257.56527013287996 64.02882895828225,257.6650788312545 64.85357775748707,258.0643134274287 65.24424824118614,258.21402631964884 66.112404871732,258.61326048109913 66.63329885015264,258.9126858947566 67.58827114361338,259.36182368177106 68.065757290693,259.56144034757745 68.89050608989783,259.9107693224796 69.41140006831847,260.1103857708804 69.75866272044368,260.2101939654676 70.71363501390442,260.65933059644885 71.06089766602963,260.80904271799955 71.88564646546729,261.1583708283433 72.27631694916636,261.35798678261926 72.58017176971771,261.4577947301441 72.97084225364961,261.60750661441125 73.10106574813835,261.707314512576 73.83899888419546,261.8071223909792 74.14285370497964,261.50769869665965 74.27307719946839,261.30808280137717 74.40330069395714,261.1583708283433 74.70715551474132,261.05856282133027 74.88078684103675,261.1583708283433 75.0110103355255,261.20827482425375 75.22804949339479,261.4577947301441 75.31486515630968,262.2063537069771 71.23452899232507,265.1007712922874 71.23452899232507,264.8512531896704 71.23452899232507,264.8013495541818 73.75218322128057,263.5038533004117 74.40330069395714,262.8052000880707 73.4483284004964,262.2063537069771 73.27469707443379,262.106545907649 73.49173623207025,261.9568341714912 72.92743442207575,263.15452681525494 72.6235796015244,263.0547192035883 72.49335610680282,262.75529625013587 72.36313261231408,262.55568084912375 72.44994827522896,262.9050077491265 72.31972478050739,262.75529625013587 72.14609345444478,262.75529625013587 72.10268562310375,262.75529625013587 72.18950128601864,262.8052000880707 72.14609345444478,263.00481539042084 72.36313261231408,264.5019276382518 73.23128924285993,264.75144591380376 74.22966936812736,265.5 75.09782599867322,264.9510604455427 75.48849648237228,263.70346832598443 75.48849648237228,263.70346832598443 75.53190431371331,263.80327580918674 75.53190431371331,263.80327580918674 75.61871997686103,263.6036608230206 75.66212780843489,263.55375706419 75.66212780843489,263.5038533004117" stroke="#4dd2ff" stroke-linecap="round" stroke-linejoin="round" stroke-width="0.5"><title>2019-05-13 3.1km</title></polyline></svg>